<?xml version="1.0" encoding="utf-8"?>
<!DOCTYPE svg PUBLIC "-//W3C//DTD SVG 1.0//EN" "">
<svg version="1.0" xmlns="http://www.w3.org/2000/svg" width="722px" height="362px" viewBox="0 0 722 362" preserveAspectRatio="xMidYMid meet">
 <g fill="#000000">
  <path d="M118 204.5 l0 -77.5 29.8 0 c26.5 0 30.8 0.2 37.6 2 22.7 5.8 35.6 22.4 35.6 45.8 0 19.7 -9 36 -23.9 43.5 l-5 2.5 18.5 29.2 c10.2 16 18.8 29.8 19.1 30.6 0.4 1.2 -2.3 1.4 -16.8 1.4 l-17.4 -0.1 -17.5 -28.2 -17.6 -28.2 -6.2 -0.3 -6.2 -0.3 0 28.6 0 28.5 -15 0 -15 0 0 -77.5z m57.3 -6.5 c9.6 -2.9 15.6 -13.3 14.3 -24.7 -0.7 -6.4 -2.3 -9.8 -6.3 -13.5 -4.6 -4.4 -10.2 -5.8 -23.4 -5.8 l-11.9 0 0 23.1 0 23.1 11.8 -0.5 c6.4 -0.3 13.4 -1 15.5 -1.7z"/>
  <path d="M251 204.5 l0 -77.5 30.3 0 c33.6 0 39.3 0.7 50.2 6.1 7.9 3.8 16.7 12.7 19.9 20.1 9.2 20.9 4.3 48.7 -11 62.8 -10.9 9.8 -20.6 13 -43.1 13.7 l-16.3 0.6 0 25.8 0 25.9 -15 0 -15 0 0 -77.5z m58.1 -3.4 c10.3 -3.1 15.3 -10.7 15.4 -23.1 0 -10 -3 -16.2 -10 -20.5 -4.7 -2.9 -5.3 -3 -19.2 -3.3 l-14.3 -0.4 0 24.7 0 24.8 12.3 -0.6 c6.7 -0.3 13.8 -1 15.8 -1.6z"/>
  <path d="M345 281.8 c0 -0.2 11.4 -34.9 25.3 -77.3 l25.3 -77 19.4 0 19.4 0 25.3 76.5 c13.9 42.1 25.2 76.8 25.3 77.3 0 0.4 -7.4 0.7 -16.4 0.7 l-16.3 0 -4.8 -15.7 c-2.6 -8.7 -5.3 -17.3 -6.1 -19.1 l-1.3 -3.2 -25.8 0.2 -25.8 0.3 -5.5 18.7 -5.5 18.8 -16.2 0 c-9 0 -16.3 -0.1 -16.3 -0.2z m87.2 -64.3 c0.5 -0.5 -16.5 -57.2 -17.5 -58.1 -0.3 -0.3 -1 1 -1.5 2.8 -2.5 7.7 -16.2 54.6 -16.2 55.2 0 0.7 34.4 0.8 35.2 0.1z"/>
 </g>
 <g fill="#de002b">
  <path d="M562.4 181.2 c-3.2 -2.5 -4.4 -5.5 -4.4 -10.7 0 -4 0.5 -5.2 3.4 -8.1 3.8 -3.8 7.7 -4.4 12.6 -1.9 6.9 3.6 8 14.4 2.1 19.7 -3.7 3.3 -10.3 3.8 -13.7 1z"/>
  <path d="M608.3 180.9 c-10.7 -4.1 -19.5 -15.1 -23.5 -29.4 -1.9 -7.1 -2.2 -10.4 -2.2 -29.5 0 -29.8 2.8 -41 12.9 -51.9 6.8 -7.2 12.7 -9.6 24.5 -9.6 8.4 0 10.2 0.3 15.1 2.8 10.5 5.1 18.2 16.4 21.4 31.3 2.2 10 3 32.9 1.6 45.2 -2 16.9 -6.2 26.5 -15.1 34.5 -9.4 8.5 -23.1 11.1 -34.7 6.6z m18.3 -15.5 c8.3 -4 11.6 -16.3 11.7 -43.4 0 -28.4 -3 -39.8 -11.8 -44 -9.2 -4.5 -17.6 0.3 -20.8 11.7 -3.9 13.9 -4.5 42.5 -1.2 58.7 3.2 15.3 11.8 21.9 22.1 17z"/>
  <path d="M474.4 179.9 c-2.9 -1.5 -5.4 -6.1 -5.4 -10.1 0 -7 5.1 -14.5 20.3 -29.8 7.8 -8 17.5 -17.4 21.4 -21 9.2 -8.5 12.7 -15 12.8 -24.1 0 -5.5 -0.4 -7.2 -2.7 -10.6 -4.6 -7 -14.3 -9.5 -22.2 -5.8 -4.5 2.2 -6.8 5.3 -10.6 14.7 -3.3 8.3 -5.8 10.8 -10.4 10.8 -5.1 0 -8.1 -3.9 -8 -10.3 0.2 -20.6 17.9 -35 40.9 -33.4 11.7 0.9 17 3 23.6 9.6 7.8 7.9 10.2 14.4 9.7 26.6 -0.4 8.1 -0.8 9.7 -4.3 16.5 -3.1 5.9 -6 9.5 -13.9 17 -17.2 16.2 -28.2 27.4 -29.5 29.8 l-1.2 2.2 21.1 0 c22.4 0 26.7 0.7 28.9 4.8 2 3.7 1.3 9.1 -1.4 11.7 l-2.4 2.5 -32.3 -0.1 c-19.5 0 -33.1 -0.4 -34.4 -1z"/>
 </g>
</svg>